<svg width="16" height="12" viewBox="0 0 16 12" fill="none" xmlns="http://www.w3.org/2000/svg">
<path d="M15.8632 5.63564L11.0635 0.181091C10.9611 0.0654544 10.8181 0 10.6667 0H7.46686C7.25674 0 7.06582 0.126545 6.97942 0.322909C6.89409 0.520364 6.92929 0.750545 7.07008 0.909818L11.5488 6L7.07008 11.0891C6.92929 11.2495 6.89303 11.4796 6.97942 11.676C7.06582 11.8735 7.25674 12 7.46686 12H10.6667C10.8181 12 10.9611 11.9335 11.0635 11.82L15.8632 6.36545C16.0456 6.15818 16.0456 5.84182 15.8632 5.63564Z" fill="white"/>
<path d="M8.93025 5.63564L4.13051 0.181091C4.02811 0.0654544 3.88519 0 3.73373 0H0.533904C0.323782 0 0.132859 0.126545 0.0464639 0.322909C-0.0388648 0.520364 -0.00366671 0.750545 0.137126 0.909818L4.61582 6L0.137126 11.0891C-0.00366671 11.2495 -0.0399314 11.4796 0.0464639 11.676C0.132859 11.8735 0.323782 12 0.533904 12H3.73373C3.88519 12 4.02811 11.9335 4.13051 11.82L8.93025 6.36545C9.11264 6.15818 9.11264 5.84182 8.93025 5.63564Z" fill="white"/>
</svg>
